<svg width="24" height="24" viewBox="0 0 24 24" fill="none" xmlns="http://www.w3.org/2000/svg">
    <path d="M2.4 6a2.4 2.4 0 0 1 2.4-2.4h9.6A2.4 2.4 0 0 1 16.8 6v7.2a2.4 2.4 0 0 1-2.4 2.4H4.8a2.4 2.4 0 0 1-2.4-2.4V6zm2.4-1.2A1.2 1.2 0 0 0 3.6 6v7.2a1.2 1.2 0 0 0 1.2 1.2h9.6a1.2 1.2 0 0 0 1.2-1.2V6a1.2 1.2 0 0 0-1.2-1.2H4.8zM7.2 18a2.4 2.4 0 0 1-2.079-1.2H14.4a3.6 3.6 0 0 0 3.6-3.6V6.32A2.4 2.4 0 0 1 19.2 8.4v4.8a4.8 4.8 0 0 1-4.8 4.8H7.2zm2.4 2.4a2.4 2.4 0 0 1-2.079-1.2H14.4a6 6 0 0 0 6-6V8.72a2.4 2.4 0 0 1 1.2 2.079v2.4a7.2 7.2 0 0 1-7.2 7.2H9.6z" fill="#347AE2"/>
</svg>
